<?xml version="1.0" encoding="UTF-8"?>
<svg width="1665pt" height="347pt" version="1.0" viewBox="0 0 1665.000000 347.000000"
    xmlns="http://www.w3.org/2000/svg">
    <g transform="translate(0 347) scale(.1 -.1)">
        <path d="m975 3277c-177-45-347-182-487-391-164-245-287-619-319-970-33-362 32-1019 132-1333 83-259 157-326 302-271 42 16 49 37 31 104-21 82-57 320-99 652-19 156-35 285-35 287s44 32 97 67c173 113 422 307 513 399 171 174 273 358 347 629 26 96 25 389-1 480-63 218-193 346-359 356-40 2-94-2-122-9zm160-174c199-70 216-407 41-778-140-294-340-528-609-713l-92-63-7 27c-4 15-13 109-19 210-15 213-4 381 37 584 60 300 162 514 309 648 115 106 212 130 340 85z"/>
        <path d="m8025 2900c-153-33-276-124-337-250-31-63-30-182 1-263 43-111 220-344 497-658 341-387 526-710 498-873-10-62-34-114-62-136-38-31-149-62-217-61-154 2-274 63-540 274-55 44-119 88-143 99-41 19-45 19-63 2-11-10-19-30-19-50 0-86 231-303 450-422 216-118 383-153 553-117 125 26 192 94 242 246 25 73 27 92 21 163-9 116-38 214-107 353-110 221-228 388-539 763-273 328-295 356-330 421-45 85-49 136-16 204 33 67 77 102 142 114 122 23 360-60 519-181 116-89 142-176 65-222-38-22-43-70-7-80 49-13 105-5 158 22 43 21 61 39 87 82 20 34 32 67 32 90 0 76-107 214-236 306-78 56-227 127-324 154-84 23-260 35-325 20z"/>
        <path d="m5113 2752c-109-39-181-109-244-237-65-132-82-215-83-395-1-138 2-167 27-265 51-200 189-506 343-762 41-67 74-127 74-133 0-22-70-162-100-200-46-57-123-92-207-92-228-1-368 140-656 658-84 150-130 187-185 147-18-13-74-110-162-282-74-145-151-284-170-309-47-63-112-98-165-88-89 17-131 98-259 497-83 260-115 311-174 279-40-22-81-115-161-370-141-451-176-510-299-498-59 6-115 40-150 91-28 43-79 193-143 427-56 202-89 294-152 415-72 137-159 200-300 215-214 24-395-116-552-427-58-116-92-248-105-416-27-325 46-506 240-596 123-57 320-60 439-6 65 30 93 55 168 148 136 169 248 168 359-3 76-118 146-159 243-145 107 16 182 94 336 350 63 107 91 135 131 135s92-55 153-158c78-134 141-177 256-176 52 0 81 6 115 24 60 31 153 122 260 253 101 123 127 146 172 153 51 8 92-27 200-171 128-170 224-267 307-308 56-27 77-32 161-35 53-2 122 1 153 8 127 26 249 114 328 237 23 38 44 70 46 72 1 2 28-20 59-48 156-142 284-199 470-208 174-9 292 19 412 97 72 46 97 79 88 116-8 32-52 74-78 74-10 0-55-20-101-44-106-57-172-76-269-76-159 0-285 72-424 242l-58 70 23 81c34 127 98 442 121 594 64 429 13 788-136 970-75 91-238 136-351 95zm188-162c50-52 74-132 90-291 21-217-7-632-60-894l-29-140-119 245c-143 291-165 345-191 470-29 137-36 241-22 335 30 200 121 314 249 315 39 0 49-5 82-40zm-3296-955c79-46 149-181 176-340 6-38 12-124 12-190 1-180-29-261-141-374-76-77-133-108-225-123-121-20-226 33-255 129-25 85-36 240-23 342 27 205 95 409 162 485 83 94 205 124 294 71z"/>
        <path d="m11589 2721c-39-31-52-72-47-149 6-76 23-117 73-166 42-42 92-58 140-45 121 34 105 254-26 352-41 29-108 34-140 8z"/>
        <path d="m12920 2461c-29-8-49-54-49-116-1-22 8-114 19-205 83-703 79-873-23-1109-43-99-96-178-168-251-63-63-164-120-211-120-36 0-96 30-143 72-53 46-187 254-315 488-144 264-177 309-227 310-34 0-64-50-138-230-136-333-217-469-288-482-93-18-141 35-328 357-164 284-230 367-304 381-79 14-108-20-230-266-135-272-190-349-261-369-101-28-154 34-344 398-91 174-135 231-177 231s-87-58-129-167c-28-75-48-109-81-142-39-40-46-43-79-38-49 8-81 40-114 112-30 65-64 102-95 105-52 6-63 0-75-36-14-41-9-86 26-229 13-55 36-167 50-250 45-270 85-404 126-426 14-8 27-6 51 8 26 15 52 57 144 238 126 248 160 295 217 295 20 0 47-7 61-16 30-19 96-117 216-317 135-228 188-270 269-215 46 32 93 103 216 334 152 283 179 318 245 316 67-2 116-60 322-386 137-216 199-296 250-322 33-18 80-13 116 12 32 23 103 135 191 304 83 158 148 240 192 240 24 0 91-39 113-65 5-7 66-82 134-166 148-184 230-271 291-307 91-54 230-24 359 78 27 22 109 96 181 165 72 70 136 125 142 123s41-54 78-116c188-311 274-386 447-385 105 0 181 34 231 103 94 130 134 162 207 162 54 0 72-10 146-78 54-50 62-54 108-54 60 0 79 17 163 148 64 100 213 262 312 341 88 70 141 94 206 95 85 1 129-31 345-253 429-442 422-436 547-466 135-32 290-11 523 68 80 27 118 68 113 121-5 51-37 54-186 18-247-61-347-61-442-1-55 34-541 523-659 662-121 142-183 170-291 132-72-25-274-183-452-352-77-73-134-102-200-103-55 0-102 33-125 88-21 50-32 252-33 572 0 501-35 695-133 743-109 54-162-69-137-318 15-159 16-680 1-820-20-180-68-346-122-413-54-69-162-82-232-29-130 99-274 552-294 922-11 216 29 263 274 320 173 40 203 59 203 125 0 68-53 120-122 120-18 0-71-9-118-20s-111-20-142-20c-71 0-99 22-123 100-57 180-151 276-245 251z"/>
    </g>
</svg>
